# xmcd
#
# Track frame offsets: 
#        150
#        12501
#        26750
#        42066
#        56709
#        68386
#        79910
#        92412
#        108798
#        121189
#        132082
#        145727
#        157728
#
# Disc length: 2270 seconds
#
# Revision: 0
# Processed by: cddbd v1.5.2PL0 Copyright (c) Steve Scherf et al.
# Submitted via: ExactAudioCopy v0.95b4
#
DISCID=9608dc0d
DTITLE=Cecil Hall and the Dominion Bluegrass Boys - Virginia Is Callin
DTITLE=g Me
DYEAR=2004
DGENRE=Bluegrass
TTITLE0=Take Me Back
TTITLE1=Buck Branch
TTITLE2=Virginia Is Calling Me
TTITLE3=Their Last Flight
TTITLE4=My Home Over Yonder
TTITLE5=Jamie Leigh
TTITLE6=You Broke My Heart
TTITLE7=Fish Hooks
TTITLE8=Grandma And Grandpa
TTITLE9=Which Road Is Your Soul On
TTITLE10=Jesus Died For You and Me
TTITLE11=Dominion Valley Breakdown
TTITLE12=Could I Knock On Your Door
EXTD=
EXTT0=
EXTT1=
EXTT2=
EXTT3=
EXTT4=
EXTT5=
EXTT6=
EXTT7=
EXTT8=
EXTT9=
EXTT10=
EXTT11=
EXTT12=
PLAYORDER=
